<?xml version="1.0" encoding="utf-8"?>
<svg version="1.1" xmlns="http://www.w3.org/2000/svg" xmlns:xlink="http://www.w3.org/1999/xlink" x="0px" y="0px"
	 viewBox="0 0 220.8 61.8" style="enable-background:new 0 0 220.8 61.8;" xml:space="preserve">
<style type="text/css">
	.aoa-logo-0{fill:#003E7E;}
	.aoa-logo-1{fill:#003E7E;enable-background:new    ;}
</style>
<g id="big-letters">
	<g>
		<g>
			<polygon class="aoa-logo-0" points="115.3,32.3 115.3,32.3 115.3,32.3 			"/>
			<polygon class="aoa-logo-0" points="114.3,40.9 114.3,40.9 114.3,40.9 			"/>
			<path class="aoa-logo-0" d="M115.1,40.9c0.5-0.1,0.2,0,0.6-0.1c1-0.2,2-0.4,2.9-0.7c0.5-0.2,1.1-0.4,1.6-0.6c1.7-0.7,3.2-1.5,4.6-2.6
				c1.1-0.8,2-1.7,2.9-2.7c0.6-0.7,1.2-1.4,1.7-2.2c0.6-0.9,1.2-2,1.6-3c0.3,0,15.2,0,15.5,0c0.1,0.2,0.2,0.6,0.2,0.6
				c1.1,2.8,2.7,6.9,3.2,9.5c-1.1,0.2-5.2,0.8-5.4,0.9l-0.2,0v1.1h13.3v-1l-0.2,0c-0.4-0.1-3.4-0.7-4-0.9c-1.1-1.9-2.2-4.2-3.1-6.4
				l-12-30.5h-2.5c0,0-4.5,10.9-4.9,11.8c-3.2-7.4-10.6-12-19.3-12c0,0-0.2,0-0.2,0c0,0-0.1,0-0.1,0l0,0c0,0-0.2,0-0.2,0
				c-8.7,0-16.1,4.6-19.3,12C91.6,13.1,87,2.2,87,2.2h-2.5l-12,30.5c-0.9,2.2-2,4.6-3.1,6.4c-0.6,0.1-3.6,0.8-4,0.9l-0.2,0v1h13.3
				v-1.1l-0.2,0c-0.2,0-4.4-0.7-5.4-0.9c0.5-2.6,2.1-6.8,3.2-9.5c0,0,0.2-0.4,0.2-0.6c0.3,0,15.2,0,15.5,0c0.5,1,1,2.1,1.6,3
				c0.5,0.8,1.1,1.5,1.7,2.2c0.9,1,1.8,1.9,2.9,2.7c1.4,1,2.9,1.9,4.6,2.6c0.5,0.2,1,0.4,1.6,0.6c0.9,0.3,1.9,0.5,2.9,0.7
				c0.5,0.1,1,0.2,1.5,0.2l0.2,0c0,0,1.1,0.2,3.1,0.1l-1.4-2.1l-0.3,0c-4.9-0.4-9.2-3.4-11.5-7.9c-0.3-0.6-0.6-1.3-0.9-2
				c-0.8-2.2-1.2-4.8-1.2-7.6c0-5.2,1.5-9.6,4.3-12.7c2.6-2.9,6.2-4.6,10.1-4.6l0.1,0c0,0,0.1,0,0.2,0c0.1,0,0.2,0,0.2,0l0.1,0
				c3.9,0.1,7.5,1.7,10.1,4.6c2.8,3.2,4.3,7.6,4.3,12.7c0,2.8-0.4,5.3-1.2,7.6c-0.2,0.7-0.5,1.4-0.9,2c-2.3,4.4-6.4,7.3-11.2,7.8
				C112.9,38.9,114.5,39.4,115.1,40.9z M84.2,27c-2.1,0-4.6,0-6.9-0.3c0.2-0.4,0.6-1.5,0.6-1.5c1.5-3.8,4.2-10.7,6.1-14.7
				c0.3,0.7,6.6,15.6,6.9,16.2C88.5,27,86.2,27,84.2,27z M105.1,4.4L105.1,4.4c-2.4,0.9-4.5,2.2-6.3,4c-2.9,2.9-4.7,6.6-5.2,10.8
				c-0.1,0.9-0.2,1.8-0.2,2.6c0,5.9,3,11.6,7.9,14.9c1.3,0.9,2.6,1.5,4,2.1c0.1,0.1,0.2,0.2,0.2,0.3c0,0.1-0.3,0.1-0.5,0
				c-0.1,0-0.2-0.1-0.4-0.1c0,0,0,0,0,0l0,0c-0.9-0.3-1.7-0.7-2.6-1.1c-1.7-0.9-3.3-2-4.7-3.3c-1.9-1.8-3.4-4.1-4.4-6.4l-2.3-5.6
				c0,0-6.2-14.9-6.2-14.9c0-0.1,0.6-1.6,0.8-1.9c0.1,0.3,5.5,13.2,5.5,13.2l0.8,2l0.2,0c0.1-1.5,0.3-3.1,0.8-4.6
				c1.2-3.6,3.5-6.9,6.7-9.3c1.8-1.4,3.8-2.4,5.9-3c0.2,0,0.4-0.1,0.4,0.1C105.7,4.3,105.1,4.4,105.1,4.4z M129.9,28.2
				c-1,2.4-2.5,4.6-4.4,6.4c-1.4,1.3-3,2.5-4.7,3.3c-1,0.5-2,0.9-3,1.2c-0.2,0-0.4,0.1-0.4-0.1c0-0.1,0.1-0.2,0.2-0.3
				c1.4-0.5,2.8-1.2,4-2.1c4.9-3.3,7.9-9.1,7.9-14.9c0-0.8-0.1-1.6-0.2-2.6c-0.5-4.2-2.3-7.9-5.2-10.8c-1.8-1.8-3.9-3.1-6.3-4l0,0
				c0,0-0.5-0.2-0.5-0.4c0-0.1,0.2-0.1,0.4-0.1c2.1,0.6,4.1,1.7,5.9,3c3.1,2.4,5.5,5.7,6.7,9.3c0.5,1.5,0.8,3,0.8,4.6l0.2,0l0.8-2
				c0,0,5.4-12.9,5.5-13.2c0.1,0.3,0.7,1.9,0.8,1.9c0,0.1-6.2,14.9-6.2,14.9L129.9,28.2z M138.7,27c-2,0-4.3,0-6.6-0.3
				c0.2-0.6,6.6-15.5,6.9-16.2c2,4,4.7,10.9,6.1,14.7c0,0,0.4,1,0.6,1.5C143.3,27,140.8,27,138.7,27z"/>
		</g>
		<g>
			<path class="aoa-logo-0" d="M103.3,13c1.5,0,2.7,0.9,2.7,2.4c0,2.2-1.6,2.7-3.1,2.7h-2.7v-0.3c0.4,0,0.6-0.1,0.6-0.2c0-0.1,0-0.2,0-0.3
				v-3.6c0-0.1,0-0.2,0-0.3c0-0.1-0.3-0.2-0.6-0.2V13H103.3z M102.4,17.1c0,0.6,0,0.6,0.3,0.6c0.9,0,1.6-0.4,1.6-2.3
				c0-1.4-0.6-2-1.8-2h-0.1V17.1z"/>
			<path class="aoa-logo-0" d="M117.7,15.4c0-1.3,1.2-2.6,2.8-2.6c1.4,0,2.6,1,2.6,2.6c0,1.9-1.7,2.7-2.9,2.7
				C119.4,18.1,117.7,17.6,117.7,15.4z M121.5,15.5c0-1.7-0.7-2.2-1.3-2.2c-0.5,0-1,0.3-1,1.9c0,1.7,0.5,2.4,1.2,2.4
				C120.9,17.6,121.5,17.5,121.5,15.5z"/>
			<path class="aoa-logo-1" d="M113.9,43.8c0.1-0.2,0.2-0.7,0.2-1.2c0-0.4-0.1-0.7-0.2-1l0,0c-0.3-0.8-1-1.4-2-1.9c0,0-0.6-0.2-0.5-0.2
				c-0.2-0.1-0.4-0.1-0.5-0.2c-0.6-0.4-1-1-1-1.6l0-0.4c0-0.5,0.1-2,0.4-2.5c0,0-0.1-0.1-0.2-0.1c-0.2,0-0.6,0.1-1.3,1.2
				c-0.4,0.6-1.2,2.2-0.6,3.7c0.3,0.9,1.2,1.6,2.5,2.1c0,0,0.6,0.2,0.6,0.2c0,0,0.8,0.3,0.8,0.3c1.3,0.7,1.5,1.6,1.5,1.6
				S113.7,44,113.9,43.8z"/>
			<path class="aoa-logo-1" d="M115,33L115,33c-0.3-0.9-1.2-1.5-2.6-2c0,0-0.8-0.2-0.8-0.2c-0.5-0.1-0.8-0.2-1.1-0.3
				c-0.7-0.3-1-0.8-1.1-1.5l0-0.2c0-0.9,0.3-2.3,0.4-2.7c0-0.1-0.1-0.1-0.1-0.1c-0.3-0.1-1,0.5-1.5,1.2c-0.6,1-1.2,2.4-0.7,3.6
				c0.4,1,1.5,1.7,3.1,2.1c0,0,0,0,0,0c0,0,0,0,0.1,0c0.1,1.3,0.4,5.2,0.4,5.3c0,0,0,0,0,0c0.1,0,0.1,0.1,0.2,0.1l0.2,0.1l0.1,0
				c0,0,0.1,0,0.2,0.1c0-0.3,0.2-4.1,0.3-5.1c0.1,0,0.1,0,0.1,0.1c0.7,0.4,1,0.8,1,1.3c0,0.1,0,0.1,0,0.2c-0.1,0.8-0.4,2.4-0.6,2.8
				c0,0.1,0,0.1,0,0.1c0.2,0,0.8-0.9,1.1-1.3c0.8-1.1,1.1-2,1.1-2.8C115.1,33.4,115.1,33.2,115,33z"/>
			<path class="aoa-logo-1" d="M115.5,23.9c-0.4-0.9-1.3-1.6-2.8-2c-0.4-0.1-0.7-0.2-1.1-0.2c-0.7-0.1-1.2-0.3-1.6-0.4
				c-0.7-0.3-1.1-0.7-1.1-1.3l0-0.2c0-0.7,0.3-2.2,0.4-2.7c0-0.1-0.1-0.1-0.1-0.1c-0.3-0.1-1,0.5-1.5,1.2c-0.4,0.6-0.9,1.5-0.9,2.5
				c0,0.3,0,0.6,0.2,0.9c0.4,1,1.5,1.8,3.3,2.2c0,0,0,0,0,0c0.1,1.2,0.3,4.9,0.3,5c0.2,0.1,0.3,0.1,0.5,0.2l0.3,0.1c0,0,0.1,0,0.1,0
				l0.3,0.1c0,0,0.3,0.1,0.4,0.1c0-0.2,0.2-3.9,0.2-5c0.1,0,0.1,0,0.2,0.1c0.7,0.3,1,0.7,1.1,1.4c0,0,0,0.1,0,0.1
				c0,0.9-0.4,2.3-0.6,2.8c0,0.1,0.1,0.1,0.1,0.1c0.2,0,0.8-0.4,1.4-1.2c0.3-0.5,1-1.7,1-2.8C115.7,24.5,115.6,24.2,115.5,23.9z"/>
			<path class="aoa-logo-1" d="M119.7,10.8c-0.3-0.9-0.7-1.7-1.2-2.4c-0.5-0.6-0.9-1.1-1.4-1.3c-0.6-0.3-1.5-0.5-2.5-0.5l-0.1,0h0l0,0
				c-1.2-1.2-3.4-1.7-5.3-1.3c-2.3,0.5-3.6,2.2-3.6,4.6v0.1c0,3.2,2.1,4.1,4.2,4.6l0,0c0.1,1.2,0.3,5.1,0.4,5.2
				c0.3,0.1,0.6,0.2,0.8,0.3l0.5,0.1l0.3,0.1c0.3,0,0.7,0.1,1,0.2c0-0.3,0.1-4.1,0.1-5.2c0.1,0,0.2,0.1,0.2,0.1
				c0.7,0.3,1,0.7,1.1,1.3c0,0.1,0,0.1,0,0.2c0,1-0.4,2.4-0.6,2.8c0,0.1,0.1,0.1,0.1,0.1c0.3,0.1,1-0.5,1.5-1.2
				c0.5-0.7,1.2-2.1,0.8-3.4c-0.3-1-1.3-1.7-2.8-2.1c-0.5-0.1-1-0.3-1.6-0.4c-0.8-0.1-1.5-0.4-2-0.7c-0.8-0.5-1.2-1.2-1.2-2
				c0-0.8,0.4-1.5,1-1.9c0.1,0,0.1-0.1,0.2-0.1c0.1,0.7,0.2,2.4,0.2,2.5c0.3,0.2,0.6,0.3,1,0.4l0.6,0.2c0.1,0,0.1,0,0.2,0
				c0.5,0.1,1.1,0.2,1.6,0.3c0-0.3,0.1-2.3,0.1-2.3c0-0.1,0-0.2-0.1-0.4c0,0,0-0.1-0.1-0.1c0,0,0,0,0,0c0,0,0.4,0.4,0.4,0.4
				c0.2,0.3,0.4,0.6,0.5,0.8c0.1,0.2,0.2,0.4,0.3,0.5c1.2,1.2,3.1,1.1,5.2,0.8C119.6,11,119.7,10.9,119.7,10.8
				C119.7,10.8,119.7,10.8,119.7,10.8z"/>
			<path class="aoa-logo-1" d="M111.1,4.1c0.9,0,1.3,0,2.1,0.1l0.1-2.9c0-1.1-1.3-1.3-2.1-1.4c-0.9-0.1-1.6,0.1-1.9,0.5
				c-0.2,0.3-0.3,0.6-0.3,1c0,0,0.1,2.5,0.1,2.8C110,4.2,111.1,4.1,111.1,4.1z"/>
		</g>
	</g>
</g>
<g id="little-letters">
	<rect x="0.3" y="47.9" class="aoa-logo-0" width="220.5" height="1.2"/>
	<path class="aoa-logo-0" d="M75.8,58.3c0,1.9-1.3,3.4-3.2,3.4c-1.9,0-3.2-1.5-3.2-3.4c0-1.9,1.3-3.4,3.2-3.4
		C74.4,54.9,75.8,56.5,75.8,58.3z M74.5,58.3c0-1.2-0.9-2.2-1.9-2.2c-1.1,0-2,1-2,2.2c0,1.2,0.9,2.2,2,2.2
		C73.7,60.6,74.5,59.6,74.5,58.3z"/>
	<path class="aoa-logo-0" d="M83.2,57.1H82c0-0.6-0.5-1-1.3-1c-0.7,0-1.3,0.3-1.3,0.8c0,0.4,0.4,0.6,1.4,0.8c1.6,0.3,2.5,0.7,2.5,2
		c0,1.3-1.1,2.1-2.7,2.1c-1.3,0-2.7-0.7-2.7-2.3h1.2c0,0.8,0.8,1.1,1.4,1.1c0.7,0,1.5-0.3,1.5-0.9c0-0.4-0.3-0.7-1.5-0.9
		c-1.2-0.2-2.4-0.6-2.4-2c0-1.1,1-1.9,2.5-1.9C82.4,54.9,83.2,56.1,83.2,57.1z"/>
	<path class="aoa-logo-0" d="M88.3,56.3v5.4H87v-5.4h-1.8v-1.2H90v1.2H88.3z"/>
	<path class="aoa-logo-0" d="M97.2,61.6h-4.8v-6.5h4.8v1.2h-3.5v1.4h3v1.2h-3v1.7h3.6V61.6z"/>
	<path class="aoa-logo-0" d="M105.7,58.3c0,1.9-1.3,3.4-3.2,3.4c-1.9,0-3.2-1.5-3.2-3.4c0-1.9,1.3-3.4,3.2-3.4
		C104.3,54.9,105.7,56.5,105.7,58.3z M104.4,58.3c0-1.2-0.9-2.2-1.9-2.2c-1.1,0-2,1-2,2.2c0,1.2,0.9,2.2,2,2.2
		C103.5,60.6,104.4,59.6,104.4,58.3z"/>
	<path class="aoa-logo-0" d="M111,59.3h-1.5v2.3h-1.2v-6.5h2.7c1.4,0,2.2,0.8,2.2,2.1C113.1,58.4,112.2,59.3,111,59.3z M109.4,56.3v1.9h1.5
		c0.6,0,0.9-0.3,0.9-1c0-0.7-0.3-0.9-0.9-0.9H109.4z"/>
	<path class="aoa-logo-0" d="M116,60.3l-0.4,1.3h-1.3l2.3-6.5h1.6l2.3,6.5H119l-0.4-1.3H116z M117.3,56.5l-0.9,2.7h1.8L117.3,56.5z"/>
	<path class="aoa-logo-0" d="M124.4,56.3v5.4h-1.2v-5.4h-1.8v-1.2h4.7v1.2H124.4z"/>
	<path class="aoa-logo-0" d="M133.8,61.6h-1.2v-2.8h-2.8v2.8h-1.3v-6.5h1.3v2.6h2.8v-2.6h1.2V61.6z"/>
	<path class="aoa-logo-0" d="M137.9,61.6h-1.2v-6.5h1.2V61.6z"/>
	<path class="aoa-logo-0" d="M143.6,61.8c-1.8,0-3.2-1.5-3.2-3.4c0-1.9,1.4-3.4,3.2-3.4c1.5,0,2.6,0.8,3,2.2h-1.3c-0.3-0.6-0.9-1-1.6-1
		c-1.1,0-1.9,1-1.9,2.3c0,1.2,0.8,2.3,1.9,2.3c0.7,0,1.3-0.5,1.6-1.1h1.3C146.2,60.9,145.1,61.8,143.6,61.8z"/>
	<path class="aoa-logo-1" d="M9.9,55.1c0,0-1.1,0-1.2,0c0,0,0,6.5,0,6.5c0,0,0.7,0,0.8,0c0,0,0-5.5,0-5.5l0,0c0,0,1.9,5.4,1.9,5.5
		c0,0,0.8,0,0.8,0c0,0,1.9-5.5,1.9-5.5l0,0c0,0,0,5.4,0,5.5c0,0,0.7,0,0.8,0c0,0,0-6.5,0-6.5c0,0-1.1,0-1.2,0c0,0-1.9,5.6-1.9,5.6
		S9.9,55.2,9.9,55.1z"/>
	<path class="aoa-logo-1" d="M23.2,55.8c0,0,0-0.7,0-0.7c0,0-4.6,0-4.6,0c0,0,0,6.5,0,6.5c0,0,4.6,0,4.6,0c0,0,0-0.7,0-0.7c0,0-3.9,0-3.9,0
		v-2.3c0,0,3.5,0,3.5,0c0,0,0-0.7,0-0.7c0,0-3.5,0-3.5,0v-2C19.3,55.8,23.1,55.8,23.2,55.8z"/>
	<path class="aoa-logo-1" d="M31.2,60c0-0.6-0.2-1.1-0.7-1.4l0,0l0,0c0.6-0.3,0.9-0.9,0.9-1.6c0-1.2-0.8-2-2.1-2c0,0-2.8,0-2.9,0
		c0,0,0,6.5,0,6.5c0,0,0.7,0,0.8,0c0,0,0-2.6,0-2.6h2.2c0.7,0,1.1,0.3,1.1,1v0.9c0,0.3,0,0.5,0.1,0.7c0,0,0.7,0,0.8,0
		c-0.1-0.2-0.1-0.5-0.1-0.8V60z M29.4,58.3h-2.1v-2.5h0h2.1c0.9,0,1.3,0.4,1.3,1.2C30.7,57.8,30.2,58.3,29.4,58.3z"/>
	<path class="aoa-logo-1" d="M3.3,55.1c0,0-0.8,0-0.9,0c0,0-2.4,6.4-2.5,6.5c0.1,0,0.8,0,0.8,0c0,0,0.7-1.9,0.7-1.9h2.7
		c0,0,0.7,1.9,0.7,1.9c0,0,0.8,0,0.9,0C5.7,61.6,3.3,55.2,3.3,55.1z M1.8,59l1.1-2.9l0-0.1l1.1,3H1.8z"/>
	<path class="aoa-logo-1" d="M35.6,55.1c0,0-0.7,0-0.8,0c0,0,0,6.5,0,6.5c0,0,0.7,0,0.8,0C35.6,61.6,35.6,55.2,35.6,55.1z"/>
	<path class="aoa-logo-1" d="M42.1,61c-1.4,0-2.5-1.2-2.5-2.7c0-1.5,1.1-2.7,2.5-2.7c1,0,1.8,0.5,2.2,1.4c0,0,0.7,0,0.8,0
		c-0.4-1.3-1.6-2.1-3-2.1c-1.8,0-3.2,1.5-3.2,3.4c0,1.9,1.4,3.4,3.2,3.4c1.4,0,2.5-0.8,3-2.1c-0.1,0-0.8,0-0.8,0
		C43.9,60.5,43.1,61,42.1,61z"/>
	<path class="aoa-logo-1" d="M50.8,55.1c0,0-0.8,0-0.9,0c0,0-2.4,6.4-2.5,6.5c0.1,0,0.8,0,0.8,0c0,0,0.7-1.9,0.7-1.9h2.7
		c0,0,0.7,1.9,0.7,1.9c0,0,0.8,0,0.9,0C53.2,61.6,50.9,55.2,50.8,55.1z M49.3,59l1.1-2.9l0-0.1l1.1,3H49.3z"/>
	<path class="aoa-logo-1" d="M56.2,55.1c0,0,0,6.5,0,6.5c0,0,0.7,0,0.8,0c0,0,0-5.4,0-5.4s3.5,5.4,3.5,5.4c0,0,0.8,0,0.9,0c0,0,0-6.5,0-6.5
		c0,0-0.7,0-0.8,0c0,0,0,5.4,0,5.4s-3.5-5.3-3.5-5.4C57,55.1,56.2,55.1,56.2,55.1z"/>
	<path class="aoa-logo-1" d="M156.3,55.1c0,0-0.8,0-0.9,0c0,0-2.4,6.4-2.5,6.5c0.1,0,0.8,0,0.8,0c0,0,0.7-1.9,0.7-1.9h2.7
		c0,0,0.7,1.9,0.7,1.9c0,0,0.8,0,0.8,0C158.7,61.6,156.4,55.2,156.3,55.1z M154.8,59l1.1-2.9l0-0.1l1.1,3H154.8z"/>
	<path class="aoa-logo-1" d="M162.5,57.9c-1.3-0.2-1.7-0.5-1.7-1.1c0-0.7,0.5-1.1,1.5-1.1c0.9,0,1.5,0.5,1.5,1.3c0,0,0.7,0,0.8,0
		c0-1.2-0.9-2-2.3-2c-1.4,0-2.3,0.7-2.3,1.8c0,1,0.7,1.5,2.3,1.8c1.4,0.2,1.7,0.6,1.7,1.2c0,0.8-0.6,1.2-1.7,1.2
		c-1,0-1.7-0.6-1.7-1.4c0,0-0.7,0-0.8,0c0,1.3,1,2.1,2.5,2.1c1.5,0,2.5-0.7,2.5-1.9C164.8,58.6,164,58.2,162.5,57.9z"/>
	<path class="aoa-logo-1" d="M168.9,57.9c-1.3-0.2-1.7-0.5-1.7-1.1c0-0.7,0.5-1.1,1.5-1.1c0.9,0,1.5,0.5,1.5,1.3c0,0,0.7,0,0.8,0
		c0-1.2-0.9-2-2.3-2c-1.4,0-2.3,0.7-2.3,1.8c0,1,0.7,1.5,2.3,1.8c1.4,0.2,1.7,0.6,1.7,1.2c0,0.8-0.6,1.2-1.7,1.2
		c-1,0-1.7-0.6-1.7-1.4c0,0-0.7,0-0.8,0c0,1.3,1,2.1,2.5,2.1c1.5,0,2.4-0.7,2.4-1.9C171.2,58.6,170.4,58.2,168.9,57.9z"/>
	<path class="aoa-logo-1" d="M176,55c-1.8,0-3.2,1.5-3.2,3.4c0,1.9,1.4,3.4,3.2,3.4c1.8,0,3.2-1.5,3.2-3.4C179.2,56.4,177.8,55,176,55z
		 M176,61c-1.4,0-2.5-1.2-2.5-2.7c0-1.5,1.1-2.7,2.5-2.7c1.4,0,2.5,1.1,2.5,2.7C178.5,59.8,177.3,61,176,61z"/>
	<path class="aoa-logo-1" d="M184,61c-1.4,0-2.5-1.2-2.5-2.7c0-1.5,1.1-2.7,2.5-2.7c1,0,1.8,0.5,2.2,1.4c0,0,0.7,0,0.8,0
		c-0.4-1.3-1.6-2.1-3-2.1c-1.8,0-3.2,1.5-3.2,3.4c0,1.9,1.4,3.4,3.2,3.4c1.4,0,2.5-0.8,3-2.1c-0.1,0-0.8,0-0.8,0
		C185.7,60.5,184.9,61,184,61z"/>
	<path class="aoa-logo-1" d="M189.5,55.1c0,0-0.7,0-0.8,0c0,0,0,6.5,0,6.5c0,0,0.7,0,0.8,0C189.5,61.6,189.5,55.2,189.5,55.1z"/>
	<path class="aoa-logo-1" d="M194.5,55.1c0,0-0.8,0-0.9,0c0,0-2.4,6.4-2.5,6.5c0.1,0,0.8,0,0.8,0c0,0,0.7-1.9,0.7-1.9h2.7
		c0,0,0.7,1.9,0.7,1.9c0,0,0.8,0,0.9,0C196.9,61.6,194.5,55.2,194.5,55.1z M193,59l1.1-2.9l0-0.1l1.1,3H193z"/>
	<path class="aoa-logo-1" d="M199.4,61.6c0,0,0.7,0,0.8,0c0,0,0-5.8,0-5.8s2,0,2.1,0c0,0,0-0.7,0-0.7c0,0-4.8,0-4.9,0c0,0,0,0.7,0,0.7
		c0,0,2.1,0,2.1,0S199.4,61.6,199.4,61.6z"/>
	<path class="aoa-logo-1" d="M204.8,55.1c0,0-0.7,0-0.8,0c0,0,0,6.5,0,6.5c0,0,0.7,0,0.8,0C204.8,61.6,204.8,55.2,204.8,55.1z"/>
	<path class="aoa-logo-1" d="M210,55c-1.8,0-3.2,1.5-3.2,3.4c0,1.9,1.4,3.4,3.2,3.4c1.8,0,3.2-1.5,3.2-3.4C213.2,56.4,211.8,55,210,55z
		 M210,61c-1.4,0-2.5-1.2-2.5-2.7c0-1.5,1.1-2.7,2.5-2.7c1.4,0,2.5,1.1,2.5,2.7C212.4,59.8,211.3,61,210,61z"/>
	<path class="aoa-logo-1" d="M215.1,55.1c0,0,0,6.5,0,6.5c0,0,0.7,0,0.8,0c0,0,0-5.4,0-5.4s3.5,5.4,3.5,5.4c0,0,0.8,0,0.9,0
		c0,0,0-6.5,0-6.5c0,0-0.7,0-0.8,0c0,0,0,5.4,0,5.4s-3.5-5.3-3.5-5.4C215.9,55.1,215.1,55.1,215.1,55.1z"/>
</g>
</svg>
